<?xml version="1.0" encoding="utf-8"?>
<!-- Generator: Adobe Illustrator 25.2.3, SVG Export Plug-In . SVG Version: 6.00 Build 0)  -->
<svg version="1.1" id="Layer_1" xmlns="http://www.w3.org/2000/svg" xmlns:xlink="http://www.w3.org/1999/xlink" x="0px" y="0px"
	 viewBox="0 0 298.7 29.6" style="enable-background:new 0 0 298.7 29.6;" xml:space="preserve">
<style type="text/css">
	.st0{fill:#010101;}
	.st1{fill:#E42E2A;}
</style>
<g id="Group_4">
	<path id="Path_10" class="st0" d="M0.3,29.1V0.4h24.4v5H5.3v23.7H0.3z M5.2,17.2v-4.4h19.4v4.4H5.2z"/>
	<path id="Path_11" class="st1" d="M54.2,29.1l-4.3-7.2H36.4l2.4-4.1h8.8L41.1,7.1l-13,22h-5.8L38.9,1.6c0.4-1,1.4-1.6,2.4-1.6
		c1,0,2,0.7,2.4,1.6l16.5,27.5H54.2z"/>
	<path id="Path_12" class="st0" d="M64.3,29.1v-5h21.5c2.7,0,4.2-1.5,4.2-3.8c0-2.5-1.5-3.7-4.2-3.7H72.7c-5.4,0-8.8-3.4-8.8-8.2
		s3.1-8.1,8.8-8.1h20.6v5H72.8c-1.8-0.2-3.4,1.1-3.6,2.9c0,0.2,0,0.4,0,0.6c-0.1,1.8,1.2,3.3,3,3.5c0.2,0,0.4,0,0.6,0h13.2
		c5.8,0,8.9,2.7,8.9,8.3c0,4.8-2.9,8.4-8.9,8.4L64.3,29.1z"/>
	<path id="Path_13" class="st0" d="M109.3,29.1V5.4H98.4v-5h26.8v5h-10.9v23.7H109.3z"/>
	<path id="Path_14" class="st0" d="M137.4,29.2v-5H159c2.7,0,4.2-1.5,4.2-3.8c0-2.5-1.5-3.7-4.2-3.7h-13.2c-5.4,0-8.8-3.4-8.8-8.2
		s3.1-8.1,8.8-8.1h20.6v5h-20.6c-1.8-0.2-3.4,1.1-3.6,2.9c0,0.2,0,0.4,0,0.6c-0.1,1.8,1.2,3.3,3,3.5c0.2,0,0.4,0,0.6,0H159
		c5.8,0,8.9,2.7,8.9,8.3c0,4.8-2.9,8.4-8.9,8.4L137.4,29.2z"/>
	<path id="Path_15" class="st0" d="M221.4,29.2L215.9,9l-8.1,18.7c-0.4,1.4-1.9,2.2-3.3,1.8c-0.9-0.3-1.5-0.9-1.8-1.8L194.5,9
		L189,29.2h-4.9l7.4-27c0.2-1.2,1.3-2.1,2.5-2c1.1,0,2.1,0.7,2.5,1.7l8.8,20.3l8.8-20.3c0.4-1,1.3-1.7,2.4-1.7c1.2,0,2.2,0.8,2.4,2
		l7.4,27H221.4z"/>
	<path id="Path_16" class="st0" d="M242.8,29.2c-8,0-13.9-6.3-13.9-14.6s5.9-14.1,13.9-14.1h7c8.3,0,14.1,5.7,14.1,14.1
		s-5.9,14.6-14.1,14.6H242.8z M249.8,24.2c5.3,0,9-4,9-9.4s-3.8-9.3-9-9.3h-7c-5.1,0-8.9,3.8-8.9,9.3s3.8,9.4,8.9,9.4H249.8z"/>
	<path id="Path_17" class="st0" d="M273.8,8.2v21H269v-26c0-1.9,1-3,2.6-3c0.8,0,1.6,0.4,2.1,1L294,21.3v-21h4.8v26.3
		c0,1.9-1,3-2.5,3c-0.9,0-1.7-0.4-2.3-1.1L273.8,8.2z"/>
	<path id="Path_18" class="st1" d="M178,0.5l-4.6,2.7v26.1h5V0.5H178z"/>
</g>
</svg>
